<svg width="192" height="192" viewBox="0 0 192 192" fill="none" xmlns="http://www.w3.org/2000/svg">
<path fill-rule="evenodd" clip-rule="evenodd" d="M1 1H191V191H1V1Z" fill="white" stroke="#363F45" stroke-width="2"/>
<path fill-rule="evenodd" clip-rule="evenodd" d="M1 1H191V21H1V1Z" fill="white" stroke="#363F45" stroke-width="2"/>
<path fill-rule="evenodd" clip-rule="evenodd" d="M11.5 15C13.433 15 15 13.433 15 11.5C15 9.567 13.433 8 11.5 8C9.567 8 8 9.567 8 11.5C8 13.433 9.567 15 11.5 15Z" fill="white" stroke="#363F45" stroke-width="2"/>
<path fill-rule="evenodd" clip-rule="evenodd" d="M21.5 15C23.433 15 25 13.433 25 11.5C25 9.567 23.433 8 21.5 8C19.567 8 18 9.567 18 11.5C18 13.433 19.567 15 21.5 15Z" fill="white" stroke="#363F45" stroke-width="2"/>
<path fill-rule="evenodd" clip-rule="evenodd" d="M31.5 15C33.433 15 35 13.433 35 11.5C35 9.567 33.433 8 31.5 8C29.567 8 28 9.567 28 11.5C28 13.433 29.567 15 31.5 15Z" fill="white" stroke="#363F45" stroke-width="2"/>
</svg>
