<svg width="405" height="251" viewBox="0 0 405 251" fill="none" xmlns="http://www.w3.org/2000/svg">
<path fill-rule="evenodd" clip-rule="evenodd" d="M1 1H191V191H1V1Z" fill="white" stroke="#363F45" stroke-width="2"/>
<path fill-rule="evenodd" clip-rule="evenodd" d="M1 1H191V21H1V1Z" fill="white" stroke="#363F45" stroke-width="2"/>
<path fill-rule="evenodd" clip-rule="evenodd" d="M11.5 15C13.433 15 15 13.433 15 11.5C15 9.567 13.433 8 11.5 8C9.567 8 8 9.567 8 11.5C8 13.433 9.567 15 11.5 15Z" fill="white" stroke="#363F45" stroke-width="2"/>
<path fill-rule="evenodd" clip-rule="evenodd" d="M21.5 15C23.433 15 25 13.433 25 11.5C25 9.567 23.433 8 21.5 8C19.567 8 18 9.567 18 11.5C18 13.433 19.567 15 21.5 15Z" fill="white" stroke="#363F45" stroke-width="2"/>
<path fill-rule="evenodd" clip-rule="evenodd" d="M31.5 15C33.433 15 35 13.433 35 11.5C35 9.567 33.433 8 31.5 8C29.567 8 28 9.567 28 11.5C28 13.433 29.567 15 31.5 15Z" fill="white" stroke="#363F45" stroke-width="2"/>
<path fill-rule="evenodd" clip-rule="evenodd" d="M214 1H404V191H214V1Z" fill="white" stroke="#363F45" stroke-width="2"/>
<path fill-rule="evenodd" clip-rule="evenodd" d="M214 1H404V21H214V1Z" fill="white" stroke="#363F45" stroke-width="2"/>
<path fill-rule="evenodd" clip-rule="evenodd" d="M224.5 15C226.433 15 228 13.433 228 11.5C228 9.567 226.433 8 224.5 8C222.567 8 221 9.567 221 11.5C221 13.433 222.567 15 224.5 15Z" fill="white" stroke="#363F45" stroke-width="2"/>
<path fill-rule="evenodd" clip-rule="evenodd" d="M234.5 15C236.433 15 238 13.433 238 11.5C238 9.567 236.433 8 234.5 8C232.567 8 231 9.567 231 11.5C231 13.433 232.567 15 234.5 15Z" fill="white" stroke="#363F45" stroke-width="2"/>
<path fill-rule="evenodd" clip-rule="evenodd" d="M244.5 15C246.433 15 248 13.433 248 11.5C248 9.567 246.433 8 244.5 8C242.567 8 241 9.567 241 11.5C241 13.433 242.567 15 244.5 15Z" fill="white" stroke="#363F45" stroke-width="2"/>
<path fill-rule="evenodd" clip-rule="evenodd" d="M109 60H299V250H109V60Z" fill="white" stroke="#363F45" stroke-width="2"/>
<path fill-rule="evenodd" clip-rule="evenodd" d="M109 60H299V80H109V60Z" fill="white" stroke="#363F45" stroke-width="2"/>
<path fill-rule="evenodd" clip-rule="evenodd" d="M119.5 74C121.433 74 123 72.433 123 70.5C123 68.567 121.433 67 119.5 67C117.567 67 116 68.567 116 70.5C116 72.433 117.567 74 119.5 74Z" fill="white" stroke="#363F45" stroke-width="2"/>
<path fill-rule="evenodd" clip-rule="evenodd" d="M129.5 74C131.433 74 133 72.433 133 70.5C133 68.567 131.433 67 129.5 67C127.567 67 126 68.567 126 70.5C126 72.433 127.567 74 129.5 74Z" fill="white" stroke="#363F45" stroke-width="2"/>
<path fill-rule="evenodd" clip-rule="evenodd" d="M139.5 74C141.433 74 143 72.433 143 70.5C143 68.567 141.433 67 139.5 67C137.567 67 136 68.567 136 70.5C136 72.433 137.567 74 139.5 74Z" fill="white" stroke="#363F45" stroke-width="2"/>
</svg>
