<svg width="42" height="42" viewBox="0 0 42 42" fill="none" xmlns="http://www.w3.org/2000/svg">
<path fill-rule="evenodd" clip-rule="evenodd" d="M21 41C32.0457 41 41 32.0457 41 21C41 9.9543 32.0457 1 21 1C9.9543 1 1 9.9543 1 21C1 32.0457 9.9543 41 21 41Z" stroke="#5C636D" stroke-width="2"/>
<path d="M24.6687 24.2422V26H16.8875V24.5L20.5672 20.5547C20.937 20.1432 21.2286 19.7812 21.4422 19.4688C21.6557 19.151 21.8094 18.8672 21.9031 18.6172C22.0021 18.362 22.0516 18.1198 22.0516 17.8906C22.0516 17.5469 21.9943 17.2526 21.8797 17.0078C21.7651 16.7578 21.5958 16.5651 21.3719 16.4297C21.1531 16.2943 20.8823 16.2266 20.5594 16.2266C20.2156 16.2266 19.9187 16.3099 19.6687 16.4766C19.424 16.6432 19.2365 16.875 19.1062 17.1719C18.9812 17.4688 18.9187 17.8047 18.9187 18.1797H16.6609C16.6609 17.5026 16.8224 16.8828 17.1453 16.3203C17.4682 15.7526 17.924 15.3021 18.5125 14.9688C19.101 14.6302 19.799 14.4609 20.6062 14.4609C21.4031 14.4609 22.075 14.5911 22.6219 14.8516C23.174 15.1068 23.5906 15.4766 23.8719 15.9609C24.1583 16.4401 24.3016 17.013 24.3016 17.6797C24.3016 18.0547 24.2417 18.4219 24.1219 18.7812C24.0021 19.1354 23.8302 19.4896 23.6062 19.8438C23.3875 20.1927 23.1219 20.5469 22.8094 20.9062C22.4969 21.2656 22.1505 21.638 21.7703 22.0234L19.7937 24.2422H24.6687Z" fill="#5C636D"/>
</svg>
