<svg width="405" height="251" viewBox="0 0 405 251" fill="none" xmlns="http://www.w3.org/2000/svg">
<path fill-rule="evenodd" clip-rule="evenodd" d="M1 1H191V191H1V1Z" fill="white" stroke="#363F45" stroke-width="2"/>
<path fill-rule="evenodd" clip-rule="evenodd" d="M1 1H191V21H1V1Z" fill="white" stroke="#363F45" stroke-width="2"/>
<path fill-rule="evenodd" clip-rule="evenodd" d="M11.5 15C13.433 15 15 13.433 15 11.5C15 9.567 13.433 8 11.5 8C9.567 8 8 9.567 8 11.5C8 13.433 9.567 15 11.5 15Z" fill="white" stroke="#363F45" stroke-width="2"/>
<path fill-rule="evenodd" clip-rule="evenodd" d="M21.5 15C23.433 15 25 13.433 25 11.5C25 9.567 23.433 8 21.5 8C19.567 8 18 9.567 18 11.5C18 13.433 19.567 15 21.5 15Z" fill="white" stroke="#363F45" stroke-width="2"/>
<path fill-rule="evenodd" clip-rule="evenodd" d="M31.5 15C33.433 15 35 13.433 35 11.5C35 9.567 33.433 8 31.5 8C29.567 8 28 9.567 28 11.5C28 13.433 29.567 15 31.5 15Z" fill="white" stroke="#363F45" stroke-width="2"/>
<path fill-rule="evenodd" clip-rule="evenodd" d="M214 1H404V191H214V1Z" fill="white" stroke="#363F45" stroke-width="2"/>
<path fill-rule="evenodd" clip-rule="evenodd" d="M214 1H404V21H214V1Z" fill="white" stroke="#363F45" stroke-width="2"/>
<path fill-rule="evenodd" clip-rule="evenodd" d="M224.5 15C226.433 15 228 13.433 228 11.5C228 9.567 226.433 8 224.5 8C222.567 8 221 9.567 221 11.5C221 13.433 222.567 15 224.5 15Z" fill="white" stroke="#363F45" stroke-width="2"/>
<path fill-rule="evenodd" clip-rule="evenodd" d="M234.5 15C236.433 15 238 13.433 238 11.5C238 9.567 236.433 8 234.5 8C232.567 8 231 9.567 231 11.5C231 13.433 232.567 15 234.5 15Z" fill="white" stroke="#363F45" stroke-width="2"/>
<path fill-rule="evenodd" clip-rule="evenodd" d="M244.5 15C246.433 15 248 13.433 248 11.5C248 9.567 246.433 8 244.5 8C242.567 8 241 9.567 241 11.5C241 13.433 242.567 15 244.5 15Z" fill="white" stroke="#363F45" stroke-width="2"/>
<path fill-rule="evenodd" clip-rule="evenodd" d="M109 60H299V250H109V60Z" fill="white" stroke="#363F45" stroke-width="2"/>
<path fill-rule="evenodd" clip-rule="evenodd" d="M109 60H299V80H109V60Z" fill="white" stroke="#363F45" stroke-width="2"/>
<path fill-rule="evenodd" clip-rule="evenodd" d="M119.5 74C121.433 74 123 72.433 123 70.5C123 68.567 121.433 67 119.5 67C117.567 67 116 68.567 116 70.5C116 72.433 117.567 74 119.5 74Z" fill="white" stroke="#363F45" stroke-width="2"/>
<path fill-rule="evenodd" clip-rule="evenodd" d="M129.5 74C131.433 74 133 72.433 133 70.5C133 68.567 131.433 67 129.5 67C127.567 67 126 68.567 126 70.5C126 72.433 127.567 74 129.5 74Z" fill="white" stroke="#363F45" stroke-width="2"/>
<path fill-rule="evenodd" clip-rule="evenodd" d="M139.5 74C141.433 74 143 72.433 143 70.5C143 68.567 141.433 67 139.5 67C137.567 67 136 68.567 136 70.5C136 72.433 137.567 74 139.5 74Z" fill="white" stroke="#363F45" stroke-width="2"/>
<path fill-rule="evenodd" clip-rule="evenodd" d="M204 194C221.673 194 236 179.673 236 162C236 144.327 221.673 130 204 130C186.327 130 172 144.327 172 162C172 179.673 186.327 194 204 194Z" fill="white" stroke="#363F45" stroke-width="2"/>
<path d="M195 152C194.448 152 194 152.448 194 153C194 153.552 194.448 154 195 154L195 152ZM197.5 153L198.47 152.757C198.359 152.312 197.959 152 197.5 152V153ZM211 167C211.552 167 212 166.552 212 166C212 165.448 211.552 165 211 165V167ZM213 155L213.97 155.243C214.045 154.944 213.978 154.627 213.788 154.385C213.599 154.142 213.308 154 213 154V155ZM211 163V164C211.459 164 211.859 163.688 211.97 163.243L211 163ZM195 154H197.5V152H195L195 154ZM196.53 153.243L197.03 155.243L198.97 154.757L198.47 152.757L196.53 153.243ZM197.03 155.243L199.03 163.243L200.97 162.757L198.97 154.757L197.03 155.243ZM200 162H199.5V164H200V162ZM199.5 167H211V165H199.5V167ZM197 164.5C197 165.881 198.119 167 199.5 167V165C199.224 165 199 164.776 199 164.5H197ZM199.5 162C198.119 162 197 163.119 197 164.5H199C199 164.224 199.224 164 199.5 164V162ZM198 156H213V154H198V156ZM212.03 154.757L210.03 162.757L211.97 163.243L213.97 155.243L212.03 154.757ZM211 162H200V164H211V162ZM210 170V172C211.105 172 212 171.105 212 170H210ZM210 170H208C208 171.105 208.895 172 210 172V170ZM210 170V168C208.895 168 208 168.895 208 170H210ZM210 170H212C212 168.895 211.105 168 210 168V170ZM200 170V172C201.105 172 202 171.105 202 170H200ZM200 170H198C198 171.105 198.895 172 200 172V170ZM200 170V168C198.895 168 198 168.895 198 170H200ZM200 170H202C202 168.895 201.105 168 200 168V170Z" fill="#363F45"/>
</svg>
