<svg width="241" height="234" viewBox="0 0 241 234" fill="none" xmlns="http://www.w3.org/2000/svg">
<path fill-rule="evenodd" clip-rule="evenodd" d="M1 1H191V191H1V1Z" fill="white" stroke="#363F45" stroke-width="2"/>
<path fill-rule="evenodd" clip-rule="evenodd" d="M1 1H191V21H1V1Z" fill="white" stroke="#363F45" stroke-width="2"/>
<path fill-rule="evenodd" clip-rule="evenodd" d="M11.5 15C13.433 15 15 13.433 15 11.5C15 9.567 13.433 8 11.5 8C9.567 8 8 9.567 8 11.5C8 13.433 9.567 15 11.5 15Z" fill="white" stroke="#363F45" stroke-width="2"/>
<path fill-rule="evenodd" clip-rule="evenodd" d="M21.5 15C23.433 15 25 13.433 25 11.5C25 9.567 23.433 8 21.5 8C19.567 8 18 9.567 18 11.5C18 13.433 19.567 15 21.5 15Z" fill="white" stroke="#363F45" stroke-width="2"/>
<path fill-rule="evenodd" clip-rule="evenodd" d="M31.5 15C33.433 15 35 13.433 35 11.5C35 9.567 33.433 8 31.5 8C29.567 8 28 9.567 28 11.5C28 13.433 29.567 15 31.5 15Z" fill="white" stroke="#363F45" stroke-width="2"/>
<path fill-rule="evenodd" clip-rule="evenodd" d="M50 43H240V233H50V43Z" fill="white" stroke="#363F45" stroke-width="2"/>
<path fill-rule="evenodd" clip-rule="evenodd" d="M50 43H240V63H50V43Z" fill="white" stroke="#363F45" stroke-width="2"/>
<path fill-rule="evenodd" clip-rule="evenodd" d="M60.5 57C62.433 57 64 55.433 64 53.5C64 51.567 62.433 50 60.5 50C58.567 50 57 51.567 57 53.5C57 55.433 58.567 57 60.5 57Z" fill="white" stroke="#363F45" stroke-width="2"/>
<path fill-rule="evenodd" clip-rule="evenodd" d="M70.5 57C72.433 57 74 55.433 74 53.5C74 51.567 72.433 50 70.5 50C68.567 50 67 51.567 67 53.5C67 55.433 68.567 57 70.5 57Z" fill="white" stroke="#363F45" stroke-width="2"/>
<path fill-rule="evenodd" clip-rule="evenodd" d="M80.5 57C82.433 57 84 55.433 84 53.5C84 51.567 82.433 50 80.5 50C78.567 50 77 51.567 77 53.5C77 55.433 78.567 57 80.5 57Z" fill="white" stroke="#363F45" stroke-width="2"/>
</svg>
