<?xml version="1.0" encoding="UTF-8"?>
<svg fill="#35332F" width="100pt" height="100pt" version="1.1" viewBox="0 0 100 100" xmlns="http://www.w3.org/2000/svg">
 <g>
  <path d="m47.484 28.895c-0.74609-1.1523-1.6797-2.1797-2.7344-3.0156-1.0938-0.84766-2.2773-1.4844-3.5586-1.9219-2.543-0.875-5.3789-0.88672-7.8711 0.070313-1.2461 0.46484-2.4023 1.1523-3.4023 2.0195-0.5 0.41797-0.96094 0.94141-1.3672 1.3945l-0.60547 0.83203-0.48047 0.83984c-1.1797 2.3516-1.6172 5.1016-1.3164 7.7344 0.12891 1.3203 0.45312 2.625 0.97266 3.8398 0.5 1.2227 1.1719 2.375 2.0391 3.3672 0.40234 0.52734 0.91016 0.94922 1.3867 1.4062 0.49219 0.37109 1.0703 0.87109 1.6172 1.1797 1.0703 0.71875 2.3438 1.1914 3.6172 1.3672 1.2812 0.17188 2.5977-0.019531 3.8164-0.49219 1.2227-0.47656 2.3594-1.1914 3.4102-2.0273 1.043-0.84766 2-1.8125 2.8984-2.8281l0.33594-0.38281 0.085937-0.097656 0.0625-0.085938 0.15234-0.20703 0.60547-0.83203c0.40234-0.55469 0.62891-1.1641 0.96094-1.7422v0.19922l-0.46484-1.2852-0.39062-1.3125c-0.11719-0.44141-0.20703-0.89062-0.30859-1.332-0.09375-0.44531-0.13672-0.90234-0.20703-1.3555-0.058593-0.45312-0.050781-0.91016-0.078125-1.3672-0.023437-0.22656 0.019532-0.45703 0.027344-0.68359l0.050781-0.68359c0.011719-0.22656 0.085938-0.44922 0.125-0.67188l0.14453-0.66406c0.14063-0.42188 0.32031-0.83984 0.47656-1.2617zc-0.13281 0.43359-0.28125 0.85938-0.39844 1.293l-0.10156 0.66797c-0.027344 0.22266-0.085937 0.44141-0.085937 0.66406l-0.015626 0.67188c0.003907 0.22266-0.027343 0.44531 0.003907 0.67188 0.050781 0.44531 0.0625 0.89453 0.14062 1.3359 0.089844 0.4375 0.15234 0.88281 0.26562 1.3164 0.12109 0.42969 0.22656 0.86328 0.36328 1.293 0.27734 0.85156 0.60156 1.6875 0.94141 2.5156l0.046875 0.11328-0.046875 0.089844c-0.32031 0.62109-0.57812 1.3164-0.96875 1.8828l-0.58203 0.84766-0.14453 0.21094-0.085938 0.125-0.082031 0.10156-0.33203 0.39844c-0.89062 1.0625-1.8398 2.0781-2.9023 2.9961-1.0664 0.90234-2.25 1.7109-3.5859 2.2383-1.3242 0.53516-2.8008 0.76562-4.2383 0.58594-1.4375-0.1875-2.8086-0.68359-4.0273-1.4805-0.64453-0.37109-1.1094-0.77734-1.7148-1.2266-0.51953-0.48438-1.0703-0.94141-1.5117-1.5078-0.49219-0.51953-0.86328-1.1289-1.2695-1.7148-0.33984-0.625-0.70312-1.2422-0.94141-1.9141-0.54688-1.3125-0.87891-2.707-1.0039-4.1133-0.28906-2.8125 0.19141-5.7031 1.4922-8.2422 0.18359-0.3125 0.36328-0.63672 0.55469-0.9375l0.60938-0.82812c0.50391-0.57031 0.97266-1.0586 1.5352-1.5078 1.0977-0.89844 2.3555-1.5977 3.6914-2.0508 2.668-0.92578 5.6523-0.85938 8.2461 0.17969 1.293 0.50781 2.5195 1.25 3.5508 2.1367 1.0625 0.89844 1.9297 1.9922 2.5977 3.1875z"/>
  <path d="m48.832 40.156s-0.11719-0.27734-0.33984-0.79297c-0.21875-0.51953-0.52734-1.2891-0.84766-2.293-0.30859-1.0078-0.65234-2.25-0.77734-3.7266-0.125-1.4688 0.027343-3.1914 0.80078-4.8867 0.36328-0.85938 0.97266-1.6328 1.6445-2.375 0.375-0.32812 0.74609-0.6875 1.1602-1 0.43359-0.27734 0.84766-0.61719 1.3164-0.86328 0.48047-0.23828 0.91406-0.52734 1.457-0.73438 0.50391-0.1875 0.95703-0.42969 1.5312-0.55859 0.55469-0.16016 1.1211-0.31641 1.6914-0.38281 0.57031-0.11328 1.1523-0.14062 1.7422-0.16406 2.3672-0.10938 4.8125 0.51172 7.0273 1.6289 2.1953 1.1484 4.2383 2.7812 5.6406 4.9922 0.1875 0.26562 0.3125 0.57422 0.46094 0.86719l0.21484 0.44141 0.16797 0.46484c0.097656 0.28906 0.21094 0.54297 0.29688 0.86719l0.24219 0.96875c0.24609 1.2695 0.30469 2.5508 0.17969 3.8086-0.15625 1.2539-0.48047 2.4727-0.97266 3.6016-0.51172 1.125-1.1953 2.1328-1.957 3.0391-0.77734 0.89453-1.6758 1.6445-2.6094 2.2812-0.96484 0.58594-1.9453 1.1094-2.9648 1.4141-2.0234 0.69531-4.0938 0.77344-5.8945 0.47266-1.8086-0.3125-3.3945-0.92969-4.6445-1.7227-1.2578-0.78516-2.1797-1.707-2.8555-2.5156-0.66406-0.82422-1.082-1.5469-1.332-2.0547-0.25-0.50391-0.37891-0.77734-0.37891-0.77734zm0.089844-0.039062s0.13281 0.26562 0.38281 0.76953c0.25391 0.49609 0.67969 1.207 1.3477 2.0117 0.67969 0.78906 1.6016 1.6836 2.8477 2.4375 1.2422 0.75391 2.8047 1.3633 4.5781 1.5938 1.7695 0.23437 3.7617 0.089843 5.6797-0.64063 0.97656-0.32422 1.8945-0.85937 2.793-1.4453 0.86719-0.63672 1.6914-1.3711 2.3984-2.2383 0.6875-0.87891 1.3008-1.8438 1.7422-2.9062 0.43359-1.0664 0.72656-2.1992 0.85547-3.3633 0.097656-1.168 0.027344-2.3555-0.21094-3.5156-0.25391-1.1523-0.69922-2.2852-1.3086-3.293-1.25-2.0312-3.1484-3.6055-5.207-4.7188-2.0859-1.0664-4.3711-1.7188-6.6133-1.6953-2.2344-0.015625-4.3828 0.58203-6.1836 1.5586-0.46484 0.21875-0.86719 0.53125-1.293 0.78516-0.40625 0.28516-0.76953 0.61719-1.1445 0.92188-0.66797 0.69141-1.2734 1.4102-1.6484 2.2227-0.8125 1.5977-0.97266 3.293-0.87109 4.7344 0.10156 1.4531 0.42969 2.6914 0.71875 3.6953 0.30469 1.0039 0.60156 1.7695 0.8125 2.2891 0.21094 0.52344 0.32422 0.79688 0.32422 0.79688z"/>
  <path d="m28.969 26.438s0.37109-0.64844 1.1172-1.4922c0.36328-0.42578 0.83203-0.88672 1.3711-1.3438 0.55078-0.44141 1.1641-0.89062 1.8359-1.2461 0.32812-0.19531 0.67188-0.36328 1.0195-0.50391 0.33984-0.16797 0.69922-0.26953 1.0469-0.37109 0.34766-0.10156 0.69141-0.14844 1.0234-0.17969 0.32813-0.050781 0.63672-0.050781 0.92578-0.03125 0.57422 0.011719 1.043 0.09375 1.3633 0.18359 0.32422 0.074219 0.50391 0.12891 0.50391 0.12891l-0.011719 0.074219s-0.19141 0.03125-0.51172 0.058594c-0.16016 0.019531-0.35547 0.03125-0.57422 0.042968-0.22266 0.011719-0.46875 0.078126-0.73438 0.10938-0.26953 0.03125-0.55469 0.074218-0.85156 0.14844-0.29688 0.070313-0.61719 0.10547-0.93359 0.21875-0.32422 0.078125-0.66016 0.15234-0.99219 0.27344-0.33984 0.097657-0.67188 0.22656-1 0.37891-0.66016 0.28516-1.2773 0.67188-1.8398 1.0547-0.54687 0.40234-1.0508 0.80078-1.4492 1.1836-0.80859 0.74609-1.2422 1.3516-1.2422 1.3516z"/>
  <path d="m68.316 26.48s-0.42188-0.59766-1.2148-1.3438c-0.78906-0.74219-1.9258-1.6523-3.2305-2.2383-0.32031-0.15234-0.64844-0.28125-0.98438-0.38281-0.32422-0.12109-0.65625-0.19922-0.97656-0.27734-0.3125-0.11328-0.62891-0.14844-0.92188-0.21875-0.29297-0.074219-0.57422-0.12109-0.83984-0.15234-0.26563-0.027344-0.50781-0.09375-0.72656-0.10938-0.21875-0.007812-0.41016-0.023437-0.56641-0.042968-0.32031-0.027344-0.50781-0.058594-0.50781-0.058594l-0.011718-0.074219s0.17578-0.054687 0.49609-0.12891c0.31641-0.089844 0.78125-0.17188 1.3516-0.18359 0.28516-0.019531 0.59375-0.015625 0.91406 0.03125 0.32422 0.03125 0.66797 0.082031 1.0117 0.17969 0.34375 0.10156 0.69531 0.20312 1.0312 0.37109 0.34766 0.14063 0.67969 0.3125 1.0039 0.50781 0.66016 0.35938 1.2656 0.80859 1.8008 1.25 0.53125 0.45312 0.98828 0.91406 1.3438 1.3398 0.72656 0.83984 1.0898 1.4844 1.0898 1.4844z"/>
  <path d="m48.703 83.25c-21.219 0-25.031-18.836-25.684-26.938l-0.023437-0.29688 0.44922 0.039063c0.85156 0.089843 1.7617-0.11328 2.5273-0.50391l0.14453-0.074219 0.125 0.10156c5.9297 4.7109 16.172 5.2188 20.301 5.2188 1.3203 0 2.1367-0.050781 2.1445-0.050781 0.039062 0 0.90625 0.050781 2.3164 0.050781 4.4336 0 15.418-0.51953 21.676-5.3359l0.13281-0.10156 0.14453 0.082031c0.71875 0.41406 1.5586 0.63672 2.4258 0.63672 0.046876 0 0.089844-0.007813 0.13281-0.011719s0.085937-0.007812 0.13281-0.011718l0.28516-0.015626-0.023438 0.28516c-0.69531 8.1016-4.7383 26.926-27.207 26.926zm-25.16-26.676c0.71094 8.1133 4.6133 26.176 25.16 26.176 21.781 0 25.926-18.059 26.68-26.168-0.89844 0-1.7695-0.21484-2.5312-0.62109-6.3984 4.8164-17.395 5.3398-21.848 5.3398-1.4141 0-2.293-0.050781-2.3164-0.050781 0.007812 0-0.82031 0.050781-2.1445 0.050781-4.1523 0-14.418-0.51172-20.488-5.2305-0.71094 0.33594-1.5039 0.51172-2.3047 0.51172-0.070312 0-0.14062-0.003906-0.20703-0.007812z"/>
  <path d="m29.785 54.23s-0.10938 0.12891-0.33984 0.33203c-0.23047 0.19141-0.5625 0.47656-1.0117 0.73828-0.44531 0.26953-0.99609 0.55078-1.6289 0.73438-0.3125 0.10547-0.64453 0.19922-0.99219 0.23828-0.35156 0.058593-0.67188 0.10156-1.0156 0.14062-0.68359 0.0625-1.3008 0.17578-1.9219 0.28516-0.60938 0.11328-1.168 0.26562-1.6484 0.40234-0.23437 0.082032-0.44922 0.15625-0.64062 0.22266-0.18359 0.085937-0.34375 0.16016-0.47656 0.22266-0.23828 0.15625-0.39062 0.25-0.39062 0.25s0.10156-0.13281 0.30469-0.36719c0.23047-0.19531 0.57031-0.48047 1.0391-0.72266 0.23438-0.10938 0.48828-0.24219 0.76953-0.34766 0.28125-0.097656 0.57422-0.22656 0.89062-0.30078 0.61328-0.17969 1.3281-0.31641 1.9961-0.39062 0.33203-0.027344 0.68359-0.066407 0.99219-0.11328 0.31641-0.03125 0.625-0.078126 0.92187-0.15625 0.59766-0.12109 1.1445-0.31641 1.6133-0.48438 0.94141-0.34766 1.5391-0.68359 1.5391-0.68359z"/>
  <path d="m69.52 53.953s0.53906 0.36719 1.3945 0.76172c0.42578 0.19141 0.92578 0.41016 1.4805 0.5625 0.27344 0.09375 0.55859 0.15625 0.85547 0.20312 0.28125 0.058593 0.61328 0.11719 0.92578 0.16016 0.62109 0.10547 1.2891 0.28125 1.8594 0.49219 0.29297 0.089844 0.5625 0.23438 0.82031 0.34375 0.25781 0.11719 0.48438 0.26563 0.69922 0.38672 0.42187 0.26562 0.71875 0.5625 0.91406 0.76953 0.17188 0.24219 0.25 0.375 0.25 0.375s-0.13672-0.097656-0.34766-0.26562c-0.11719-0.066407-0.26562-0.14844-0.42969-0.24219-0.17578-0.074219-0.37109-0.16016-0.58594-0.25391-0.44141-0.16016-0.95312-0.33594-1.5195-0.48438-0.57422-0.14453-1.1484-0.28906-1.7852-0.38672-0.32031-0.054688-0.61719-0.11328-0.94531-0.19141-0.32812-0.058594-0.63281-0.17188-0.92188-0.28906-0.58594-0.21875-1.0859-0.52734-1.4805-0.81641-0.40234-0.28516-0.6875-0.58594-0.89062-0.78516-0.20312-0.20703-0.29297-0.33984-0.29297-0.33984z"/>
  <path d="m49.387 61.031h0.25v8.3008h-0.25z"/>
  <path d="m56.617 60.801 1.7344 6.8359"/>
  <path d="m56.738 60.77 1.7305 6.8359-0.24219 0.0625-1.7305-6.8359z"/>
  <path d="m63.902 59.617 2.8398 3.293"/>
  <path d="m64 59.539 2.8398 3.293-0.19141 0.16406-2.8398-3.293z"/>
  <path d="m42.25 61.031-2.5547 6.375"/>
  <path d="m42.141 60.988 0.23438 0.09375-2.5664 6.3672-0.23438-0.09375z"/>
  <path d="m34.367 59.617-3.3594 2.9062"/>
  <path d="m34.289 59.527 0.16406 0.19141-3.3672 2.8984-0.16406-0.19141z"/>
  <path d="m45.215 29.793c0 4.4414-3.6367 4.4414-3.6367 0 0-4.4453 3.6367-4.4453 3.6367 0"/>
  <path d="m43.398 33.25c-1.0898 0-1.9414-1.5195-1.9414-3.457s0.85547-3.457 1.9414-3.457c1.0898 0 1.9414 1.5195 1.9414 3.457s-0.85156 3.457-1.9414 3.457zm0-6.668c-0.93359 0-1.6914 1.4375-1.6914 3.207-0.003906 1.7695 0.75781 3.2109 1.6914 3.2109 0.93359 0 1.6914-1.4375 1.6914-3.207s-0.75781-3.2109-1.6914-3.2109z"/>
  <path d="m53.316 29.793c0 4.4414-3.6328 4.4414-3.6328 0 0-4.4453 3.6328-4.4453 3.6328 0"/>
  <path d="m51.5 33.25c-1.0703 0-1.9414-1.5508-1.9414-3.457 0-1.9375 0.85547-3.457 1.9414-3.457 1.0898 0 1.9414 1.5195 1.9414 3.457 0 1.9062-0.87109 3.457-1.9414 3.457zm0-6.668c-0.93359 0-1.6914 1.4375-1.6914 3.207 0 1.7695 0.75781 3.2109 1.6914 3.2109s1.6914-1.4375 1.6914-3.207-0.75781-3.2109-1.6914-3.2109z"/>
  <path d="m40.973 15.039s-0.375-0.13281-1.043-0.31641c-0.66406-0.19141-1.6289-0.39453-2.7852-0.55469-1.1562-0.17188-2.5234-0.20312-3.9492-0.054688-1.418 0.17969-2.9141 0.55859-4.2344 1.2969-0.67969 0.33594-1.293 0.78516-1.8789 1.2422-0.27734 0.25-0.55469 0.5-0.82422 0.74219-0.25 0.26953-0.51172 0.52344-0.74609 0.79688-0.22656 0.28125-0.44922 0.55469-0.66406 0.82422-0.20312 0.28516-0.40234 0.5625-0.59375 0.83203-0.34766 0.56641-0.69922 1.0938-0.95312 1.6211-0.27344 0.51953-0.51953 0.99609-0.71484 1.4375-0.20703 0.43359-0.38281 0.81641-0.5 1.1406-0.25781 0.64062-0.42188 1.0078-0.42188 1.0078s0.074219-0.39063 0.23438-1.0664c0.074218-0.34375 0.1875-0.74609 0.33594-1.2109 0.070313-0.23438 0.14844-0.48047 0.22656-0.74219 0.10156-0.25391 0.21094-0.51953 0.32422-0.80078 0.21094-0.5625 0.52734-1.1406 0.83984-1.7617 0.17969-0.30078 0.35938-0.60938 0.54688-0.92188 0.19922-0.30859 0.43359-0.60156 0.65625-0.91406 0.48047-0.59766 1.0156-1.1875 1.6289-1.7188 0.62891-0.51172 1.293-1.0117 2.0312-1.3867 0.72656-0.39453 1.5078-0.68359 2.2891-0.90234 0.78125-0.23047 1.5781-0.31641 2.3398-0.38672 1.5352-0.09375 2.9531 0.11328 4.125 0.37891 1.1797 0.25781 2.1094 0.65625 2.75 0.92578 0.64453 0.28125 0.98047 0.49219 0.98047 0.49219z"/>
  <path d="m55.312 15.039s0.35156-0.21094 1.0078-0.49609c0.66016-0.26562 1.6133-0.66406 2.8203-0.92188 1.2031-0.26562 2.6484-0.47656 4.2188-0.39062 0.77734 0.058593 1.5938 0.13672 2.3945 0.35938 0.80469 0.19922 1.6016 0.48828 2.3594 0.86328 0.76172 0.37109 1.4648 0.85156 2.1133 1.3633 0.65234 0.51172 1.2109 1.1133 1.7266 1.7031 0.23828 0.3125 0.47656 0.61328 0.69531 0.91797 0.19531 0.31641 0.39062 0.62891 0.57812 0.93359 0.34375 0.62109 0.67188 1.2109 0.90234 1.7812 0.25391 0.5625 0.45312 1.0898 0.59375 1.5703 0.15625 0.47266 0.28516 0.88672 0.36328 1.2344 0.17187 0.69141 0.25391 1.0898 0.25391 1.0898s-0.16797-0.37109-0.4375-1.0273c-0.26172-0.65625-0.70312-1.5703-1.2773-2.6211-0.26953-0.53516-0.63672-1.0742-1.0117-1.6406-0.20312-0.27344-0.41016-0.55078-0.625-0.83984-0.23047-0.26953-0.46484-0.54688-0.69922-0.82812-0.25781-0.26172-0.51953-0.52344-0.78906-0.78906-0.29297-0.23438-0.5625-0.50781-0.87109-0.73438-0.60547-0.46484-1.2578-0.89453-1.9609-1.2266-1.3789-0.71875-2.918-1.0781-4.3789-1.2422-1.4648-0.14453-2.8633-0.10547-4.0508 0.066406-1.1875 0.16016-2.1758 0.36328-2.8555 0.55078-0.6875 0.19531-1.0703 0.32422-1.0703 0.32422z"/>
  <path d="m37.074 80.449c4.9258 2.3047 9.6758 2.4922 9.6758 2.4922 1.0352 0.074219 2.0156 0.082032 2.9727 0.0625-3.6797 0.035156-7.9453-0.62891-12.648-2.5547z"/>
  <path d="m48.871 83.141c-0.75781 0-1.4531-0.023437-2.1289-0.070313-0.042969-0.003906-4.8281-0.21484-9.7188-2.5078l0.10156-0.23047c4.1367 1.6914 8.293 2.5508 12.359 2.5508h0.23828l0.003906 0.25c-0.28516 0.007813-0.57031 0.007813-0.85547 0.007813z"/>
  <path d="m53.316 77.508h-5.1719c1.4414 0.57031 2.9688 0.78906 5.1719 0z"/>
  <path d="m50.648 78.145c-0.83984 0-1.6484-0.16406-2.5469-0.51953l-0.60937-0.24219h6.5469l-0.67969 0.24219c-0.97656 0.35156-1.8633 0.51953-2.7109 0.51953zm-1.7617-0.51172c1.2109 0.35547 2.3203 0.35156 3.6172 0z"/>
  <path d="m74.117 56.227c-27.715 29.727-49.359 0-49.359 0h-1.25c-0.074218 10.395 5.75 17.766 5.75 17.766 1.8281 2.7227 4.2812 4.6172 6.7695 5.9375 0.30469-0.66016 2.8203-5.8555 6.7617-4.7656 2.2266 0.61719 3.7305 1.6992 5.3516 2.3398 0.042969-0.035156 7.6875-6.3984 15.762 1.4531 0 0-0.14453 0.10547-0.40625 0.26953 0.83203-0.50781 1.2695-0.85547 1.2695-0.85547 10.77-8.125 10.746-22.055 10.746-22.055z"/>
  <path d="m36.09 80.105-0.11719-0.0625c-2.8906-1.5312-5.1836-3.5469-6.8164-5.9805-0.054688-0.066406-5.8477-7.5156-5.7734-17.836v-0.125h1.4375l0.039063 0.050782c0.097656 0.13281 9.75 13.16 24.145 13.16 8.457 0 16.875-4.4336 25.023-13.172l0.039062-0.042969 1.5703 0.10547v0.11719c0 0.14063-0.10156 14.082-10.797 22.152-0.015625 0.011719-0.44922 0.35938-1.2773 0.86328l-0.13281-0.21094c0.11719-0.074219 0.21094-0.13672 0.27734-0.18359-2.6211-2.5078-5.4648-3.7773-8.4492-3.7773-4.0312 0-6.9141 2.3398-7.0352 2.4375l-0.058594 0.046876-0.070312-0.027344c-0.60938-0.24219-1.1992-0.54297-1.8242-0.86328-1.0469-0.53516-2.1328-1.0898-3.5117-1.4727-0.34766-0.097656-0.69922-0.14453-1.0469-0.14453-3.2617 0-5.3398 4.3477-5.5664 4.8398zm-12.457-23.754c-0.027343 10.168 5.668 17.492 5.7266 17.562 1.5938 2.375 3.8164 4.3398 6.6172 5.8438 0.41797-0.875 2.5117-4.8672 5.7383-4.8672 0.36719 0 0.74219 0.050781 1.1133 0.15625 1.4062 0.39062 2.5 0.94922 3.5625 1.4922 0.59375 0.30469 1.1562 0.59375 1.7344 0.82422 0.44922-0.35156 3.2812-2.4492 7.1367-2.4492 3.0742 0 5.9922 1.3125 8.6758 3.8945 0.49219-0.32031 0.75781-0.53125 0.75781-0.53125 10.074-7.6055 10.66-20.477 10.691-21.84l-1.2188-0.082031c-8.1875 8.7656-16.652 13.207-25.164 13.207-14.059 0-23.625-12.309-24.309-13.211z"/>
  <path d="m50.059 83c0.26953-0.007812 0.54688-0.011719 0.8125-0.023438-0.26562 0.011719-0.53906 0.015626-0.8125 0.023438z"/>
  <path d="m50.062 83.125-0.007812-0.25 0.40625-0.011719c0.13672-0.003906 0.26953-0.007812 0.40234-0.015625l0.011719 0.25c-0.13281 0.007813-0.26953 0.011719-0.40625 0.015625-0.13281 0.003907-0.26953 0.007813-0.40625 0.011719z"/>
 </g>
</svg>
